<svg width="33" height="32" viewBox="0 0 33 32" fill="none" xmlns="http://www.w3.org/2000/svg">
<g clip-path="url(#clip0_814_175)">
<path d="M16.93 11.9998C15.8691 11.9998 14.8517 12.4213 14.1016 13.1714C13.3514 13.9216 12.93 14.939 12.93 15.9998C12.93 17.0607 13.3514 18.0781 14.1016 18.8283C14.8517 19.5784 15.8691 19.9998 16.93 19.9998C17.9909 19.9998 19.0083 19.5784 19.7584 18.8283C20.5086 18.0781 20.93 17.0607 20.93 15.9998C20.93 14.939 20.5086 13.9216 19.7584 13.1714C19.0083 12.4213 17.9909 11.9998 16.93 11.9998ZM16.93 9.33317C18.6981 9.33317 20.3938 10.0355 21.6441 11.2858C22.8943 12.536 23.5967 14.2317 23.5967 15.9998C23.5967 17.7679 22.8943 19.4636 21.6441 20.7139C20.3938 21.9641 18.6981 22.6665 16.93 22.6665C15.1619 22.6665 13.4662 21.9641 12.216 20.7139C10.9657 19.4636 10.2633 17.7679 10.2633 15.9998C10.2633 14.2317 10.9657 12.536 12.216 11.2858C13.4662 10.0355 15.1619 9.33317 16.93 9.33317ZM25.5967 8.99984C25.5967 9.44186 25.4211 9.86579 25.1085 10.1783C24.796 10.4909 24.372 10.6665 23.93 10.6665C23.488 10.6665 23.0641 10.4909 22.7515 10.1783C22.4389 9.86579 22.2633 9.44186 22.2633 8.99984C22.2633 8.55781 22.4389 8.13389 22.7515 7.82133C23.0641 7.50877 23.488 7.33317 23.93 7.33317C24.372 7.33317 24.796 7.50877 25.1085 7.82133C25.4211 8.13389 25.5967 8.55781 25.5967 8.99984ZM16.93 5.33317C13.6313 5.33317 13.0927 5.3425 11.558 5.4105C10.5127 5.45984 9.81135 5.59984 9.16068 5.85317C8.58201 6.07717 8.16468 6.34517 7.72068 6.7905C7.30336 7.1937 6.98248 7.68595 6.78201 8.2305C6.52868 8.88384 6.38868 9.58384 6.34068 10.6278C6.27135 12.0998 6.26335 12.6145 6.26335 15.9998C6.26335 19.2985 6.27268 19.8372 6.34068 21.3718C6.39001 22.4158 6.53001 23.1185 6.78201 23.7678C7.00868 24.3478 7.27535 24.7652 7.71801 25.2078C8.16735 25.6558 8.58468 25.9238 9.15801 26.1452C9.81668 26.3998 10.518 26.5412 11.558 26.5892C13.03 26.6585 13.5447 26.6665 16.93 26.6665C20.2287 26.6665 20.7673 26.6572 22.302 26.5892C23.3447 26.5398 24.0473 26.3998 24.698 26.1478C25.2753 25.9225 25.6953 25.6545 26.138 25.2118C26.5873 24.7625 26.8553 24.3452 27.0767 23.7718C27.33 23.1145 27.4713 22.4118 27.5193 21.3718C27.5887 19.8998 27.5967 19.3852 27.5967 15.9998C27.5967 12.7012 27.5873 12.1625 27.5193 10.6278C27.47 9.58517 27.33 8.88117 27.0767 8.2305C26.8757 7.68651 26.5554 7.19445 26.1393 6.7905C25.7363 6.37297 25.244 6.05206 24.6993 5.85184C24.046 5.5985 23.3447 5.4585 22.302 5.4105C20.83 5.34117 20.3153 5.33317 16.93 5.33317ZM16.93 2.6665C20.5527 2.6665 21.0047 2.67984 22.426 2.7465C23.846 2.81317 24.8127 3.03584 25.6633 3.3665C26.5433 3.70517 27.2847 4.16384 28.026 4.90384C28.704 5.57037 29.2286 6.37662 29.5633 7.2665C29.8927 8.11584 30.1167 9.08384 30.1833 10.5038C30.246 11.9252 30.2633 12.3772 30.2633 15.9998C30.2633 19.6225 30.25 20.0745 30.1833 21.4958C30.1167 22.9158 29.8927 23.8825 29.5633 24.7332C29.2296 25.6235 28.7048 26.43 28.026 27.0958C27.3593 27.7736 26.5531 28.2982 25.6633 28.6332C24.814 28.9625 23.846 29.1865 22.426 29.2532C21.0047 29.3158 20.5527 29.3332 16.93 29.3332C13.3073 29.3332 12.8553 29.3198 11.434 29.2532C10.014 29.1865 9.04735 28.9625 8.19668 28.6332C7.30645 28.2991 6.50005 27.7744 5.83401 27.0958C5.15589 26.4294 4.63125 25.6231 4.29668 24.7332C3.96601 23.8838 3.74335 22.9158 3.67668 21.4958C3.61401 20.0745 3.59668 19.6225 3.59668 15.9998C3.59668 12.3772 3.61001 11.9252 3.67668 10.5038C3.74335 9.0825 3.96601 8.11717 4.29668 7.2665C4.63033 6.37608 5.15508 5.5696 5.83401 4.90384C6.50024 4.22548 7.30658 3.70081 8.19668 3.3665C9.04735 3.03584 10.0127 2.81317 11.434 2.7465C12.8553 2.68384 13.3073 2.6665 16.93 2.6665Z" fill="white"/>
</g>
<defs>
<clipPath id="clip0_814_175">
<rect width="32" height="32" fill="white" transform="translate(0.929688)"/>
</clipPath>
</defs>
</svg>
