<svg width="100" height="100" viewBox="0 0 100 100" fill="none" xmlns="http://www.w3.org/2000/svg">
<path d="M37.2008 76.6563C37.2008 76.6563 33.4765 78.8234 39.8547 79.5547C47.5828 80.4375 51.532 80.3109 60.0461 78.7016C60.0461 78.7016 62.2891 80.1039 65.4156 81.3195C46.3226 89.4992 22.2062 80.8453 37.2008 76.6563ZM34.8664 65.9805C34.8664 65.9805 30.6883 69.0734 37.0719 69.7344C45.3273 70.5867 51.8453 70.6563 63.1297 68.4844C63.1297 68.4844 64.6867 70.0664 67.1391 70.9305C44.0594 77.6805 18.3531 71.4617 34.8664 65.9805Z" fill="#0074BD"/>
<path d="M54.5332 47.8678C59.2403 53.2857 53.2988 58.1568 53.2988 58.1568C53.2988 58.1568 65.2434 51.992 59.759 44.2686C54.6348 37.0693 50.7067 33.4936 71.9738 21.1592C71.9738 21.16 38.5903 29.4951 54.5332 47.8678Z" fill="#EA2D2E"/>
<path d="M79.7832 84.554C79.7832 84.554 82.5402 86.8274 76.7457 88.5844C65.7285 91.9219 30.8816 92.9282 21.2035 88.718C17.7261 87.204 24.2496 85.1047 26.3019 84.6618C28.4417 84.1985 29.6636 84.2829 29.6636 84.2829C25.7941 81.5586 4.65346 89.6344 18.9269 91.9508C57.8496 98.2602 89.8777 89.1094 79.7832 84.554ZM38.9933 54.9172C38.9933 54.9172 21.2699 59.1274 32.7175 60.6579C37.5519 61.3047 47.1847 61.1563 56.1636 60.4032C63.4996 59.7868 70.8613 58.4704 70.8613 58.4704C70.8613 58.4704 68.2769 59.579 66.405 60.8555C48.4035 65.5907 13.6363 63.3852 23.6464 58.5446C32.1089 54.4516 38.9933 54.9172 38.9933 54.9172ZM70.7878 72.6883C89.0855 63.1829 80.6246 54.0477 74.7191 55.2782C73.2753 55.579 72.6277 55.8407 72.6277 55.8407C72.6277 55.8407 73.1652 54.9977 74.1902 54.6352C85.8722 50.5297 94.855 66.7469 70.4222 73.1704C70.4222 73.1688 70.7027 72.9149 70.7878 72.6883Z" fill="#0074BD"/>
<path d="M59.7581 1.23975C59.7581 1.23975 69.8894 11.3772 50.1464 26.9608C34.3136 39.4655 46.5363 46.5937 50.141 54.7413C40.898 46.403 34.1183 39.0616 38.666 32.2296C45.3441 22.203 63.8449 17.3397 59.7581 1.23975Z" fill="#EA2D2E"/>
<path d="M40.7926 98.4539C58.352 99.5766 85.3238 97.8289 85.9621 89.5195C85.9621 89.5195 84.7348 92.6695 71.4488 95.1688C56.4598 97.9906 37.9691 97.6617 27.0059 95.8516C27.0059 95.8523 29.252 97.7117 40.7926 98.4539Z" fill="#0074BD"/>
</svg>
